<?xml version="1.0" standalone="no"?>
<!DOCTYPE svg PUBLIC "-//W3C//DTD SVG 20010904//EN"
 "http://www.w3.org/TR/2001/REC-SVG-20010904/DTD/svg10.dtd">
<svg version="1.0" xmlns="http://www.w3.org/2000/svg"
 width="512.000000pt" height="512.000000pt" viewBox="0 0 512.000000 512.000000"
 preserveAspectRatio="xMidYMid meet">

<g transform="translate(0.000000,512.000000) scale(0.100000,-0.100000)"
fill="#000000" stroke="none">
<path d="M1151 3183 c-42 -21 -71 -67 -71 -113 0 -98 129 -249 296 -348 l90
-53 37 -117 c21 -64 40 -122 43 -128 3 -8 -56 -11 -213 -10 -189 2 -225 4
-272 21 l-54 20 -38 88 c-63 148 -111 199 -185 199 -41 0 -62 -16 -81 -60 -29
-70 24 -156 144 -232 37 -24 79 -50 93 -59 25 -16 24 -16 -45 -23 -180 -17
-315 -21 -377 -8 -123 24 -209 89 -221 168 -10 58 -60 69 -73 16 -11 -44 6
-91 50 -141 90 -100 224 -140 426 -127 69 4 166 8 217 8 l92 1 38 -37 c105
-101 193 -118 193 -38 0 34 -50 82 -120 114 -53 25 -54 26 -15 18 22 -4 121
-6 220 -4 262 4 255 6 314 -82 60 -89 136 -159 198 -182 40 -16 48 -16 71 -3
41 23 48 42 34 96 -30 115 -107 187 -232 219 -69 18 -70 19 -91 69 -22 50 -60
167 -56 171 1 1 47 -13 102 -31 55 -18 165 -47 245 -65 250 -55 340 -93 437
-184 35 -32 83 -90 107 -130 36 -59 43 -78 39 -111 -5 -51 6 -66 47 -67 44 -1
63 25 55 74 -6 32 -1 47 31 99 20 34 62 87 93 119 100 101 182 137 471 205
102 24 218 55 258 69 l73 25 -6 -32 c-4 -18 -21 -68 -39 -111 -25 -63 -36 -81
-56 -86 -117 -33 -141 -43 -185 -82 -87 -77 -125 -208 -70 -244 68 -44 204 54
304 219 27 44 9 41 286 42 116 0 221 4 235 9 17 5 22 5 15 -2 -5 -5 -27 -15
-48 -22 -47 -15 -117 -79 -117 -108 0 -48 62 -68 110 -35 14 9 46 36 71 59 53
48 101 61 197 50 240 -26 374 -17 479 33 119 57 199 176 158 237 -28 43 -57
27 -69 -38 -12 -68 -103 -135 -218 -159 -51 -11 -204 -7 -378 9 -85 8 -86 5
25 67 65 37 144 112 161 152 28 66 5 132 -54 154 -73 28 -150 -50 -218 -218
l-29 -73 -55 -17 c-45 -15 -96 -18 -270 -19 l-215 -1 43 132 44 132 46 22
c113 55 267 193 311 278 29 57 28 131 -1 168 -63 80 -191 70 -268 -22 -49 -59
-107 -188 -136 -300 -18 -68 -32 -103 -43 -106 -9 -3 -55 -19 -102 -36 -48
-17 -172 -51 -277 -75 -329 -77 -429 -131 -553 -299 l-58 -77 -39 58 c-59 86
-160 176 -244 216 -88 41 -165 66 -323 100 -131 29 -289 75 -358 105 -39 17
-45 24 -52 57 -25 135 -93 291 -158 361 -66 72 -142 92 -216 56z m143 -94 c20
-17 49 -54 65 -83 33 -57 87 -213 77 -223 -10 -10 -116 67 -184 134 -63 62
-92 112 -92 157 0 54 80 63 134 15z m2616 11 c23 -23 20 -55 -11 -106 -27 -44
-145 -153 -207 -192 l-52 -32 6 27 c28 118 101 263 152 303 32 26 86 26 112 0z
m-3083 -462 c31 -34 45 -56 63 -104 l11 -27 -28 18 c-64 41 -110 102 -99 131
8 21 19 17 53 -18z m3481 3 c3 -17 -11 -38 -54 -79 -32 -31 -59 -51 -61 -45
-6 16 34 93 65 126 30 31 46 31 50 -2z m-2548 -354 c33 -17 54 -38 78 -77 17
-30 32 -58 32 -63 0 -28 -132 91 -161 145 -13 23 -4 22 51 -5z m1586 -34 c-44
-56 -111 -111 -122 -101 -8 9 13 53 42 87 24 29 92 70 117 71 5 0 -12 -26 -37
-57z"/>
</g>
</svg>
